# xmcd
#
# Track frame offsets: 
#        150
#        15764
#        38415
#        57733
#
# Disc length: 1025 seconds
#
# Revision: 0
# Processed by: cddbd v1.5.2PL0 Copyright (c) Steve Scherf et al.
# Submitted via: ExactAudioCopyFreeDBPlugin 1.0
#
DISCID=2303ff04
DTITLE=Banks - London
DYEAR=2013
DGENRE=Electronic
TTITLE0=Waiting Game
TTITLE1=This Is What It Feels Like
TTITLE2=Bedroom Wall
TTITLE3=Change
EXTD=
EXTT0=
EXTT1=
EXTT2=
EXTT3=
PLAYORDER=
